<?xml version="1.0" encoding="utf-8"?>
<svg width="30px" height="20px" viewBox="0 0 30 20" version="1.1" xmlns:xlink="http://www.w3.org/1999/xlink" xmlns="http://www.w3.org/2000/svg">
  <desc>Created with Lunacy</desc>
  <path d="M28.6672 9.04442L20.0185 0.395757C19.4908 -0.131919 18.6351 -0.131919 18.1074 0.395757C17.5796 0.923542 17.5796 1.77911 18.1074 2.3069L24.4491 8.64863L1.35135 8.64863C0.605082 8.64863 1.61332e-15 9.25372 1.61332e-15 9.99999C1.61332e-15 10.7462 0.605082 11.3513 1.35135 11.3513L24.4491 11.3513L18.1076 17.6931C17.5798 18.2209 17.5798 19.0764 18.1076 19.6042C18.3714 19.8679 18.7173 20 19.0632 20C19.409 20 19.7548 19.8679 20.0187 19.6042L28.6672 10.9556C29.195 10.4278 29.195 9.5722 28.6672 9.04442Z" id="Path" fill="#262626" stroke="none" />
</svg>