<?xml version="1.0" encoding="utf-8"?>
<svg width="19px" height="19px" viewBox="0 0 19 19" version="1.1" xmlns:xlink="http://www.w3.org/1999/xlink" xmlns="http://www.w3.org/2000/svg">
  <desc>Created with Lunacy</desc>
  <path d="M12.314 0L6.76466 0C6.45722 0 6.20805 0.249502 6.20805 0.557353C6.20805 0.865203 6.45722 1.11471 6.76466 1.11471L10.9788 1.11471L0.152109 12.0597C-0.0555324 12.2798 -0.0498793 12.6253 0.164719 12.8385C0.379318 13.0516 0.724589 13.054 0.942449 12.8444L11.7574 1.91176L11.7574 6.11412C11.7574 6.42197 12.0066 6.67147 12.314 6.67147C12.6214 6.67147 12.8706 6.42197 12.8706 6.11412L12.8706 0.557353C12.8706 0.249502 12.6214 0 12.314 0Z" transform="matrix(0.7071068 -0.7071068 0.7071068 0.7071068 0 9.100891)" id="Path" fill="#FFFFFF" stroke="none" />
</svg>