<?xml version="1.0" encoding="utf-8" ?>
<svg xmlns="http://www.w3.org/2000/svg" xmlns:xlink="http://www.w3.org/1999/xlink" width="30" height="20">
	<defs>
		<clipPath id="clip_0">
			<rect x="-696.12012" y="-3278.5801" width="1241.6001" height="4330.0801" clip-rule="evenodd"/>
		</clipPath>
	</defs>
	<g clip-path="url(#clip_0)">
		<path fill="rgb(255,255,255)" stroke="none" transform="matrix(0.97 0 0 0.97 1.31055 0.98999)" d="M29.0843 9.04442L20.3098 0.395757C19.7744 -0.131919 18.9062 -0.131919 18.3709 0.395757C17.8354 0.923542 17.8354 1.77911 18.3709 2.3069L24.8049 8.64863L1.37102 8.64863C0.613886 8.64863 1.6368e-15 9.25372 1.6368e-15 9.99999C1.6368e-15 10.7462 0.613886 11.3513 1.37102 11.3513L24.8049 11.3513L18.3711 17.6931C17.8356 18.2209 17.8356 19.0764 18.3711 19.6042C18.6387 19.8679 18.9897 20 19.3405 20C19.6914 20 20.0423 19.8679 20.31 19.6042L29.0843 10.9556C29.6198 10.4278 29.6198 9.5722 29.0843 9.04442Z"/>
	</g>

</svg>